<svg width="37" height="37" viewBox="0 0 37 37" fill="none" xmlns="http://www.w3.org/2000/svg">
<path d="M18.4999 4C25.6155 4 31.3838 9.76833 31.3838 16.8839C31.3838 22.3277 27.5589 28.2605 20.0066 34.7468C19.14 35.4911 17.8598 35.4911 16.9897 34.7438L16.4906 34.3111C9.27252 27.9956 5.61597 22.2064 5.61597 16.8839C5.61597 9.76833 11.3843 4 18.4999 4ZM18.4999 11.9286C15.7631 11.9286 13.5445 14.1472 13.5445 16.8839C13.5445 19.6207 15.7631 21.8393 18.4999 21.8393C21.2367 21.8393 23.4553 19.6207 23.4553 16.8839C23.4553 14.1472 21.2367 11.9286 18.4999 11.9286Z" fill="#040025"/>
</svg>
